{"title":"Rio 2 2014 1080p 3D BluRay HalfSBS DTS x264 ThD DualAudio Highvo","uid":10480397,"size":9368463876,"categoryP":"video","categoryS":"hd___movies","magnet":"?xt=urn:btih:a3c368c866e138f97ac1bb5935738121cd283acf&amp;dn=Rio+2+2014+1080p+3D+BluRay+HalfSBS+DTS+x264+ThD+DualAudio+Highvo&amp;tr=udp%3A%2F%2Ftracker.openbittorrent.com%3A80&amp;tr=udp%3A%2F%2Fopen.demonii.com%3A1337&amp;tr=udp%3A%2F%2Ftracker.coppersurfer.tk%3A6969&amp;tr=udp%3A%2F%2Fexodus.desync.com%3A6969","seeders":16,"leechers":4,"uploader":"Alemao99","files":6,"time":1404397819,"description":"It's a jungle out there for Blu, Jade and her three children in RIO 2, after they leave the wonderful city to venture on a trip to Brazil to get on Amazon, for a family reunion. Away from home, in an unfamiliar place, Blu will have to face his greatest fear - his father - while seeking to escape the vengeance of Nigel plan. All the favorite characters from RIO are back, and now, new voices and new artists are part of the cast. \n\nTitle in Brazil: Rio 2 \nOriginal title: Rio 2 \nRelease Year: 2014 \nGenre: Animation \nCountry of Origin: USA \nDuration: 101 minutes \nDirected by: Carlos Saldanha \nIMDB: http://www.imdb.com/title/tt2357291/ \n\nSize: 8.72 GB \nFile Extension:. MKV \nVideo Quality: Blu-Ray - 3D \nVideo codec: H.264 / AVC \nAudio Codec: AC3/DTS \nResolution: 1920 x 800 \nAudio Language: Portuguese / English \nSubtitles: Portuguese\n\nFormat                                   : Matroska\nFormat version                           : Version 2\nFile size                                : 8.72 GiB\nDuration                                 : 1h 41mn\nOverall bit rate                         : 12.3 Mbps\nEncoded date                             : UTC 2014-07-01 22:03:04\nWriting application                      : mkvmerge v3.0.0 ('Hang up your Hang-Ups') built on Dec 29 2009 00:21:20\nWriting library                          : libebml v0.7.7 + libmatroska v0.8.1\n\nVideo\nID                                       : 1\nFormat                                   : AVC\nFormat/Info                              : Advanced Video Codec\nFormat profile                           : &lt;a class=&quot;__cf_email__&quot; href=&quot;/cdn-cgi/l/email-protection&quot; data-cfemail=&quot;5e163739361e126a706f&quot;&gt;[email&amp;#160;protected]&lt;/a&gt;&lt;script cf-hash='f9e31' type=&quot;text/javascript&quot;&gt;\n/* &lt;![CDATA[ */!function(){try{var t=&quot;currentScript&quot;in document?document.currentScript:function(){for(var t=document.getElementsByTagName(&quot;script&quot;),e=t.length;e--;)if(t[e].getAttribute(&quot;cf-hash&quot;))return t[e]}();if(t&amp;&amp;t.previousSibling){var e,r,n,i,c=t.previousSibling,a=c.getAttribute(&quot;data-cfemail&quot;);if(a){for(e=&quot;&quot;,r=parseInt(a.substr(0,2),16),n=2;a.length-n;n+=2)i=parseInt(a.substr(n,2),16)^r,e+=String.fromCharCode(i);e=document.createTextNode(e),c.parentNode.replaceChild(e,c)}}}catch(u){}}();/* ]]&gt; */&lt;/script&gt;\nFormat settings, CABAC                   : Yes\nFormat settings, ReFrames                : 4 frames\nCodec ID                                 : V_MPEG4/ISO/AVC\nDuration                                 : 1h 41mn\nBit rate                                 : 10.1 Mbps\nWidth                                    : 1 920 pixels\nHeight                                   : 1 080 pixels\nDisplay aspect ratio                     : 16:9\nFrame rate                               : 23.976 fps\nColor space                              : YUV\nChroma subsampling                       : 4:2:0\nBit depth                                : 8 bits\nScan type                                : Progressive\nBits/(Pixel*Frame)                       : 0.204\nStream size                              : 7.17 GiB (82%)\nWriting library                          : x264 core 142 r2389kMod 956c8d8\nEncoding settings                        : cabac=1 / ref=4 / deblock=1:-3:-3 / analyse=0x3:0x133 / me=umh / subme=11 / psy=1 / fade_compensate=0.00 / psy_rd=0.75:0.00 / mixed_ref=1 / me_range=64 / chroma_me=1 / trellis=2 / 8x8dct=1 / cqm=0 / deadzone=21,11 / fast_pskip=0 / chroma_qp_offset=-2 / threads=36 / lookahead_threads=8 / sliced_threads=0 / nr=0 / decimate=0 / interlaced=0 / bluray_compat=0 / constrained_intra=0 / fgo=0 / bframes=16 / b_pyramid=2 / b_adapt=2 / b_bias=0 / direct=3 / weightb=1 / open_gop=0 / weightp=2 / keyint=250 / keyint_min=23 / scenecut=40 / intra_refresh=0 / rc=crf / mbtree=0 / crf=17.0000 / qcomp=0.80 / qpmin=0 / qpmax=69 / qpstep=4 / frame-packing=3 / ip_ratio=1.25 / pb_ratio=1.15 / aq=2:1.05\nLanguage                                 : English\nDefault                                  : No\nForced                                   : No\n\nAudio #1\nID                                       : 2\nFormat                                   : DTS\nFormat/Info                              : Digital Theater Systems\nFormat profile                           : ES\nCodec ID                                 : A_DTS\nDuration                                 : 1h 41mn\nBit rate mode                            : Constant\nBit rate                                 : 1 510 Kbps\nChannel(s)                               : 6 channels\nChannel positions                        : Front: L C R, Side: L R, LFE\nSampling rate                            : 48.0 KHz\nBit depth                                : 24 bits\nCompression mode                         : Lossy\nDelay relative to video                  : 11ms\nStream size                              : 1.07 GiB (12%)\nLanguage                                 : English\nDefault                                  : No\nForced                                   : No\n\nAudio #2\nID                                       : 9\nFormat                                   : AC-3\nFormat/Info                              : Audio Coding 3\nMode extension                           : CM (complete main)\nFormat settings, Endianness              : Big\nCodec ID                                 : A_AC3\nDuration                                 : 1h 41mn\nBit rate mode                            : Constant\nBit rate                                 : 448 Kbps\nChannel(s)                               : 6 channels\nChannel positions                        : Front: L C R, Side: L R, LFE\nSampling rate                            : 48.0 KHz\nBit depth                                : 16 bits\nCompression mode                         : Lossy\nStream size                              : 324 MiB (4%)\nTitle                                    : BRAZILIAN BY HIGHVOLTAGE\nLanguage                                 : Portuguese\nDefault                                  : Yes\nForced                                   : Yes\n\nText #1\nID                                       : 3\nFormat                                   : VobSub\nMuxing mode                              : zlib\nCodec ID                                 : S_VOBSUB\nCodec ID/Info                            : The same subtitle format used on DVDs\nTitle                                    : 3D Forced\nLanguage                                 : English\nDefault                                  : No\nForced                                   : No\n\nText #2\nID                                       : 4\nFormat                                   : VobSub\nMuxing mode                              : zlib\nCodec ID                                 : S_VOBSUB\nCodec ID/Info                            : The same subtitle format used on DVDs\nTitle                                    : 3D\nLanguage                                 : English\nDefault                                  : No\nForced                                   : No\n\nText #3\nID                                       : 5\nFormat                                   : VobSub\nMuxing mode                              : zlib\nCodec ID                                 : S_VOBSUB\nCodec ID/Info                            : The same subtitle format used on DVDs\nTitle                                    : 3D\nLanguage                                 : Spanish\nDefault                                  : No\nForced                                   : No\n\nText #4\nID                                       : 6\nFormat                                   : UTF-8\nCodec ID                                 : S_TEXT/UTF8\nCodec ID/Info                            : UTF-8 Plain Text\nTitle                                    : 2D Forced\nLanguage                                 : English\nDefault                                  : No\nForced                                   : No\n\nText #5\nID                                       : 7\nFormat                                   : UTF-8\nCodec ID                                 : S_TEXT/UTF8\nCodec ID/Info                            : UTF-8 Plain Text\nTitle                                    : 2D\nLanguage                                 : English\nDefault                                  : No\nForced                                   : No\n\nText #6\nID                                       : 8\nFormat                                   : UTF-8\nCodec ID                                 : S_TEXT/UTF8\nCodec ID/Info                            : UTF-8 Plain Text\nTitle                                    : 2D\nLanguage                                 : Spanish\nDefault                                  : No\nForced                                   : No\n\n\nSEED PLEASE\n\nENJOY...","torrent":{"xt":"urn:btih:a3c368c866e138f97ac1bb5935738121cd283acf","amp;dn":"Rio+2+2014+1080p+3D+BluRay+HalfSBS+DTS+x264+ThD+DualAudio+Highvo","amp;tr":["udp%3A%2F%2Ftracker.openbittorrent.com%3A80","udp%3A%2F%2Fopen.demonii.com%3A1337","udp%3A%2F%2Ftracker.coppersurfer.tk%3A6969","udp%3A%2F%2Fexodus.desync.com%3A6969"],"infoHash":"a3c368c866e138f97ac1bb5935738121cd283acf","infoHashBuffer":{"type":"Buffer","data":[163,195,104,200,102,225,56,249,122,193,187,89,53,115,129,33,205,40,58,207]},"announce":[],"urlList":[]}}